<svg width="240" height="240" viewBox="0 0 240 240" xmlns="http://www.w3.org/2000/svg">
  <title>Video Enhancer icon</title>
  <defs>
    <linearGradient id="badge" x1="0" y1="0" x2="1" y2="1">
      <stop offset="0" stop-color="#a78bfa"/>
      <stop offset="1" stop-color="#6926d6"/>
    </linearGradient>
    <linearGradient id="sheen" x1="0" y1="0" x2="0" y2="1">
      <stop offset="0" stop-color="#ffffff" stop-opacity="0.22"/>
      <stop offset="0.55" stop-color="#ffffff" stop-opacity="0"/>
    </linearGradient>
    <clipPath id="clip">
      <path d="M240.0 120.0 L239.9 160.3 L239.6 173.1 L239.1 182.4 L238.3 189.9 L237.4 196.2 L236.3 201.7 L234.9 206.6 L233.3 210.9 L231.5 214.9 L229.4 218.4 L227.1 221.6 L224.5 224.5 L221.6 227.1 L218.4 229.4 L214.9 231.5 L210.9 233.3 L206.6 234.9 L201.7 236.3 L196.2 237.4 L189.9 238.3 L182.4 239.1 L173.1 239.6 L160.3 239.9 L120.0 240.0 L79.7 239.9 L66.9 239.6 L57.6 239.1 L50.1 238.3 L43.8 237.4 L38.3 236.3 L33.4 234.9 L29.1 233.3 L25.1 231.5 L21.6 229.4 L18.4 227.1 L15.5 224.5 L12.9 221.6 L10.6 218.4 L8.5 214.9 L6.7 210.9 L5.1 206.6 L3.7 201.7 L2.6 196.2 L1.7 189.9 L0.9 182.4 L0.4 173.1 L0.1 160.3 L0.0 120.0 L0.1 79.7 L0.4 66.9 L0.9 57.6 L1.7 50.1 L2.6 43.8 L3.7 38.3 L5.1 33.4 L6.7 29.1 L8.5 25.1 L10.6 21.6 L12.9 18.4 L15.5 15.5 L18.4 12.9 L21.6 10.6 L25.1 8.5 L29.1 6.7 L33.4 5.1 L38.3 3.7 L43.8 2.6 L50.1 1.7 L57.6 0.9 L66.9 0.4 L79.7 0.1 L120.0 0.0 L160.3 0.1 L173.1 0.4 L182.4 0.9 L189.9 1.7 L196.2 2.6 L201.7 3.7 L206.6 5.1 L210.9 6.7 L214.9 8.5 L218.4 10.6 L221.6 12.9 L224.5 15.5 L227.1 18.4 L229.4 21.6 L231.5 25.1 L233.3 29.1 L234.9 33.4 L236.3 38.3 L237.4 43.8 L238.3 50.1 L239.1 57.6 L239.6 66.9 L239.9 79.7 Z"/>
    </clipPath>
  </defs>
  <path d="M240.0 120.0 L239.9 160.3 L239.6 173.1 L239.1 182.4 L238.3 189.9 L237.4 196.2 L236.3 201.7 L234.9 206.6 L233.3 210.9 L231.5 214.9 L229.4 218.4 L227.1 221.6 L224.5 224.5 L221.6 227.1 L218.4 229.4 L214.9 231.5 L210.9 233.3 L206.6 234.9 L201.7 236.3 L196.2 237.4 L189.9 238.3 L182.4 239.1 L173.1 239.6 L160.3 239.9 L120.0 240.0 L79.7 239.9 L66.9 239.6 L57.6 239.1 L50.1 238.3 L43.8 237.4 L38.3 236.3 L33.4 234.9 L29.1 233.3 L25.1 231.5 L21.6 229.4 L18.4 227.1 L15.5 224.5 L12.9 221.6 L10.6 218.4 L8.5 214.9 L6.7 210.9 L5.1 206.6 L3.7 201.7 L2.6 196.2 L1.7 189.9 L0.9 182.4 L0.4 173.1 L0.1 160.3 L0.0 120.0 L0.1 79.7 L0.4 66.9 L0.9 57.6 L1.7 50.1 L2.6 43.8 L3.7 38.3 L5.1 33.4 L6.7 29.1 L8.5 25.1 L10.6 21.6 L12.9 18.4 L15.5 15.5 L18.4 12.9 L21.6 10.6 L25.1 8.5 L29.1 6.7 L33.4 5.1 L38.3 3.7 L43.8 2.6 L50.1 1.7 L57.6 0.9 L66.9 0.4 L79.7 0.1 L120.0 0.0 L160.3 0.1 L173.1 0.4 L182.4 0.9 L189.9 1.7 L196.2 2.6 L201.7 3.7 L206.6 5.1 L210.9 6.7 L214.9 8.5 L218.4 10.6 L221.6 12.9 L224.5 15.5 L227.1 18.4 L229.4 21.6 L231.5 25.1 L233.3 29.1 L234.9 33.4 L236.3 38.3 L237.4 43.8 L238.3 50.1 L239.1 57.6 L239.6 66.9 L239.9 79.7 Z" fill="url(#badge)"/>
  <rect x="0" y="0" width="240" height="240" fill="url(#sheen)" clip-path="url(#clip)"/>
  <path d="M72 60 L72 156 L153 108 Z" fill="#ffffff" stroke="#ffffff" stroke-width="19" stroke-linejoin="round"/>
  <rect x="77" y="171" width="13" height="19" rx="4" fill="#ffffff" opacity="0.65"/>
  <rect x="101" y="159" width="13" height="31" rx="4" fill="#ffffff" opacity="0.82"/>
  <rect x="125" y="147" width="13" height="43" rx="4" fill="#ffffff" opacity="0.97"/>
  <path d="M175 51 L179 63 L189 65 L179 68 L175 80 L171 68 L160 65 L171 63 Z" fill="#ede9fe"/>
</svg>
