<svg width="760" height="260" viewBox="0 0 760 260" xmlns="http://www.w3.org/2000/svg">
  <title>Video Enhancer</title>
  <defs>
    <linearGradient id="badge" x1="0" y1="0" x2="1" y2="1">
      <stop offset="0" stop-color="#a78bfa"/>
      <stop offset="1" stop-color="#6926d6"/>
    </linearGradient>
    <linearGradient id="sheen" x1="0" y1="0" x2="0" y2="1">
      <stop offset="0" stop-color="#ffffff" stop-opacity="0.22"/>
      <stop offset="0.55" stop-color="#ffffff" stop-opacity="0"/>
    </linearGradient>
    <clipPath id="clip">
      <path d="M220.0 130.0 L219.9 160.2 L219.7 169.9 L219.3 176.8 L218.8 182.4 L218.1 187.2 L217.2 191.3 L216.2 194.9 L215.0 198.2 L213.6 201.1 L212.0 203.8 L210.3 206.2 L208.3 208.3 L206.2 210.3 L203.8 212.0 L201.1 213.6 L198.2 215.0 L194.9 216.2 L191.3 217.2 L187.2 218.1 L182.4 218.8 L176.8 219.3 L169.9 219.7 L160.2 219.9 L130.0 220.0 L99.8 219.9 L90.1 219.7 L83.2 219.3 L77.6 218.8 L72.8 218.1 L68.7 217.2 L65.1 216.2 L61.8 215.0 L58.9 213.6 L56.2 212.0 L53.8 210.3 L51.7 208.3 L49.7 206.2 L48.0 203.8 L46.4 201.1 L45.0 198.2 L43.8 194.9 L42.8 191.3 L41.9 187.2 L41.2 182.4 L40.7 176.8 L40.3 169.9 L40.1 160.2 L40.0 130.0 L40.1 99.8 L40.3 90.1 L40.7 83.2 L41.2 77.6 L41.9 72.8 L42.8 68.7 L43.8 65.1 L45.0 61.8 L46.4 58.9 L48.0 56.2 L49.7 53.8 L51.7 51.7 L53.8 49.7 L56.2 48.0 L58.9 46.4 L61.8 45.0 L65.1 43.8 L68.7 42.8 L72.8 41.9 L77.6 41.2 L83.2 40.7 L90.1 40.3 L99.8 40.1 L130.0 40.0 L160.2 40.1 L169.9 40.3 L176.8 40.7 L182.4 41.2 L187.2 41.9 L191.3 42.8 L194.9 43.8 L198.2 45.0 L201.1 46.4 L203.8 48.0 L206.2 49.7 L208.3 51.7 L210.3 53.8 L212.0 56.2 L213.6 58.9 L215.0 61.8 L216.2 65.1 L217.2 68.7 L218.1 72.8 L218.8 77.6 L219.3 83.2 L219.7 90.1 L219.9 99.8 Z"/>
    </clipPath>
  </defs>
  <path d="M220.0 130.0 L219.9 160.2 L219.7 169.9 L219.3 176.8 L218.8 182.4 L218.1 187.2 L217.2 191.3 L216.2 194.9 L215.0 198.2 L213.6 201.1 L212.0 203.8 L210.3 206.2 L208.3 208.3 L206.2 210.3 L203.8 212.0 L201.1 213.6 L198.2 215.0 L194.9 216.2 L191.3 217.2 L187.2 218.1 L182.4 218.8 L176.8 219.3 L169.9 219.7 L160.2 219.9 L130.0 220.0 L99.8 219.9 L90.1 219.7 L83.2 219.3 L77.6 218.8 L72.8 218.1 L68.7 217.2 L65.1 216.2 L61.8 215.0 L58.9 213.6 L56.2 212.0 L53.8 210.3 L51.7 208.3 L49.7 206.2 L48.0 203.8 L46.4 201.1 L45.0 198.2 L43.8 194.9 L42.8 191.3 L41.9 187.2 L41.2 182.4 L40.7 176.8 L40.3 169.9 L40.1 160.2 L40.0 130.0 L40.1 99.8 L40.3 90.1 L40.7 83.2 L41.2 77.6 L41.9 72.8 L42.8 68.7 L43.8 65.1 L45.0 61.8 L46.4 58.9 L48.0 56.2 L49.7 53.8 L51.7 51.7 L53.8 49.7 L56.2 48.0 L58.9 46.4 L61.8 45.0 L65.1 43.8 L68.7 42.8 L72.8 41.9 L77.6 41.2 L83.2 40.7 L90.1 40.3 L99.8 40.1 L130.0 40.0 L160.2 40.1 L169.9 40.3 L176.8 40.7 L182.4 41.2 L187.2 41.9 L191.3 42.8 L194.9 43.8 L198.2 45.0 L201.1 46.4 L203.8 48.0 L206.2 49.7 L208.3 51.7 L210.3 53.8 L212.0 56.2 L213.6 58.9 L215.0 61.8 L216.2 65.1 L217.2 68.7 L218.1 72.8 L218.8 77.6 L219.3 83.2 L219.7 90.1 L219.9 99.8 Z" fill="url(#badge)"/>
  <rect x="40" y="40" width="180" height="180" fill="url(#sheen)" clip-path="url(#clip)"/>
  <path d="M94 85 L94 157 L155 121 Z" fill="#ffffff" stroke="#ffffff" stroke-width="14" stroke-linejoin="round"/>
  <rect x="98" y="168" width="10" height="14" rx="3" fill="#ffffff" opacity="0.65"/>
  <rect x="116" y="159" width="10" height="23" rx="3" fill="#ffffff" opacity="0.82"/>
  <rect x="134" y="150" width="10" height="32" rx="3" fill="#ffffff" opacity="0.97"/>
  <path d="M171 78 L174 87 L182 89 L174 91 L171 100 L168 91 L160 89 L168 87 Z" fill="#ede9fe"/>
  <text x="250" y="120" font-family="Segoe UI, Arial, sans-serif" font-size="62" font-weight="700" fill="#8b5cf6">Video</text>
  <text x="250" y="188" font-family="Segoe UI, Arial, sans-serif" font-size="62" font-weight="700" fill="#a78bfa">Enhancer</text>
</svg>
