<svg width="760" height="260" viewBox="0 0 760 260" xmlns="http://www.w3.org/2000/svg">
  <title>Video Enhancer</title>
  <defs>
    <linearGradient id="badge" x1="0" y1="0" x2="1" y2="1">
      <stop offset="0" stop-color="#a78bfa"/>
      <stop offset="1" stop-color="#6926d6"/>
    </linearGradient>
    <linearGradient id="sheen" x1="0" y1="0" x2="0" y2="1">
      <stop offset="0" stop-color="#ffffff" stop-opacity="0.22"/>
      <stop offset="0.55" stop-color="#ffffff" stop-opacity="0"/>
    </linearGradient>
    <clipPath id="clip">
      <rect x="40" y="40" width="180" height="180" rx="52"/>
    </clipPath>
  </defs>
  <rect x="40" y="40" width="180" height="180" rx="52" fill="url(#badge)"/>
  <rect x="40" y="40" width="180" height="180" fill="url(#sheen)" clip-path="url(#clip)"/>
  <path d="M94 85 L94 157 L155 121 Z" fill="#ffffff" stroke="#ffffff" stroke-width="14" stroke-linejoin="round"/>
  <rect x="98" y="168" width="10" height="14" rx="3" fill="#ffffff" opacity="0.65"/>
  <rect x="116" y="159" width="10" height="23" rx="3" fill="#ffffff" opacity="0.82"/>
  <rect x="134" y="150" width="10" height="32" rx="3" fill="#ffffff" opacity="0.97"/>
  <path d="M171 78 L174 87 L182 89 L174 91 L171 100 L168 91 L160 89 L168 87 Z" fill="#ede9fe"/>
  <text x="250" y="120" font-family="Segoe UI, Arial, sans-serif" font-size="62" font-weight="700" fill="#8b5cf6">Video</text>
  <text x="250" y="188" font-family="Segoe UI, Arial, sans-serif" font-size="62" font-weight="700" fill="#a78bfa">Enhancer</text>
</svg>
